<?xml version="1.0" standalone="no"?>
<!DOCTYPE svg PUBLIC "-//W3C//DTD SVG 20010904//EN"
 "http://www.w3.org/TR/2001/REC-SVG-20010904/DTD/svg10.dtd">
<svg version="1.0" xmlns="http://www.w3.org/2000/svg"
 width="405.000000pt" height="405.000000pt" viewBox="0 0 405.000000 405.000000"
 preserveAspectRatio="xMidYMid meet">
<metadata>
Created by potrace 1.14, written by Peter Selinger 2001-2017
</metadata>
<g transform="translate(0.000000,405.000000) scale(0.100000,-0.100000)"
fill="#000000" stroke="none">
<path d="M1158 3635 c-2 -2 -50 -5 -108 -9 -58 -3 -116 -8 -130 -11 -14 -2
-40 -7 -58 -9 -99 -15 -219 -59 -342 -127 -55 -30 -132 -93 -180 -147 -43 -48
-117 -173 -127 -216 -13 -52 -33 -188 -32 -216 1 -19 1 -39 -1 -45 -1 -5 -2
-547 -1 -1203 l1 -1192 299 0 299 1 0 1179 c0 881 3 1191 12 1228 22 95 119
170 260 203 85 19 321 16 372 -5 9 -4 22 -9 30 -10 76 -14 161 -93 183 -171 9
-29 15 -57 14 -61 -1 -5 -1 -539 0 -1187 l1 -1177 302 2 303 3 0 1195 0 1195
28 56 c27 56 56 82 135 123 37 19 46 22 137 40 75 16 252 13 325 -4 124 -29
204 -93 231 -185 15 -49 17 -169 17 -1212 1 -637 1 -1170 1 -1185 l1 -28 300
0 300 0 -3 1273 c-2 699 -6 1284 -9 1299 -19 89 -69 206 -103 244 -5 7 -25 32
-44 56 -51 64 -125 119 -249 182 -161 83 -344 118 -617 118 -126 0 -282 -9
-295 -17 -4 -2 -31 -7 -60 -10 -30 -4 -62 -11 -72 -16 -10 -5 -18 -8 -18 -5 0
12 -126 -36 -230 -88 l-75 -37 -65 35 c-59 31 -220 91 -274 102 -12 2 -37 7
-56 10 -19 4 -44 8 -55 10 -34 6 -343 23 -347 19z"/>
</g>
</svg>
